<svg width="89" height="89" viewBox="0 0 89 89" fill="none" xmlns="http://www.w3.org/2000/svg">
<g id="Play">
<path id="Vector" d="M22.25 72.3125C21.2321 72.3125 20.2197 72.0344 19.3241 71.4837C18.5185 70.9838 17.8537 70.2868 17.3923 69.4585C16.931 68.6303 16.6884 67.6981 16.6875 66.75V22.25C16.6875 20.3198 17.6887 18.5287 19.3241 17.5163C20.1315 17.0199 21.0518 16.737 21.9986 16.6942C22.9454 16.6514 23.8876 16.8501 24.7364 17.2716L69.2364 39.5216C70.1604 39.9844 70.9373 40.6952 71.4803 41.5744C72.0232 42.4536 72.3108 43.4666 72.3108 44.5C72.3108 45.5334 72.0232 46.5464 71.4803 47.4256C70.9373 48.3048 70.1604 49.0156 69.2364 49.4784L24.7364 71.7284C23.9577 72.1178 23.0955 72.3125 22.25 72.3125Z" fill="black"/>
</g>
</svg>
